<svg width="24" height="24" viewBox="0 0 24 24" fill="none" xmlns="http://www.w3.org/2000/svg">
<path d="M20.8992 7.92845C20.8992 8.97423 20.4884 9.97717 19.7572 10.7166C19.026 11.4561 18.0342 11.8716 17.0001 11.8716C15.966 11.8716 14.9743 11.4561 14.2431 10.7166C13.5119 9.97717 13.1011 8.97423 13.1011 7.92845C13.1011 6.88268 13.5119 5.87973 14.2431 5.14026C14.9743 4.40078 15.966 3.98535 17.0001 3.98535C18.0342 3.98535 19.026 4.40078 19.7572 5.14026C20.4884 5.87973 20.8992 6.88268 20.8992 7.92845Z" fill="#4C5461"/>
<path d="M17.0001 11.0829C16.0043 11.0829 15.0552 11.2406 14.1974 11.6349C11.9477 12.6601 10.3156 14.7895 10.0305 17.3919C10.0305 18.2594 10.68 18.9691 11.5414 18.9691H22.4587C23.3204 18.9691 23.97 18.2594 23.97 17.3919C23.6846 14.7895 22.0525 12.6601 19.8027 11.6349C18.9449 11.2406 17.9959 11.0829 17.0001 11.0829Z" fill="#4C5461"/>
<path d="M10.8992 7.92845C10.8992 8.97423 10.4884 9.97717 9.75717 10.7166C9.02596 11.4561 8.03422 11.8716 7.00012 11.8716C5.96603 11.8716 4.97429 11.4561 4.24308 10.7166C3.51187 9.97717 3.10107 8.97423 3.10107 7.92845C3.10107 6.88268 3.51187 5.87973 4.24308 5.14026C4.97429 4.40078 5.96603 3.98535 7.00012 3.98535C8.03422 3.98535 9.02596 4.40078 9.75717 5.14026C10.4884 5.87973 10.8992 6.88268 10.8992 7.92845V7.92845Z" fill="#4C5461"/>
<path d="M7.00007 11.0829C6.00425 11.0829 5.05522 11.2406 4.19743 11.6349C1.94768 12.6601 0.315616 14.7895 0.0305176 17.3919C0.0305176 18.2594 0.680021 18.9691 1.5414 18.9691H12.4587C13.3204 18.9691 13.97 18.2594 13.97 17.3919C13.6846 14.7895 12.0525 12.6601 9.80271 11.6349C8.94492 11.2406 7.99589 11.0829 7.00007 11.0829V11.0829Z" fill="#4C5461"/>
<path d="M8.4062 12.7C5.5206 14 3.4281 16.7 3.0625 20C3.0625 21.1 3.8954 22 5 22H19C20.105 22 20.938 21.1 20.938 20C20.572 16.7 18.479 14 15.594 12.7C14.945 14 13.583 15 12 15C10.417 15 9.0547 14 8.4062 12.7V12.7Z" fill="#252F40"/>
<path d="M17 7C17 8.32608 16.4732 9.59785 15.5355 10.5355C14.5979 11.4732 13.3261 12 12 12C10.6739 12 9.40215 11.4732 8.46447 10.5355C7.52678 9.59785 7 8.32608 7 7C7 5.67392 7.52678 4.40215 8.46447 3.46447C9.40215 2.52678 10.6739 2 12 2C13.3261 2 14.5979 2.52678 15.5355 3.46447C16.4732 4.40215 17 5.67392 17 7V7Z" fill="#252F40"/>
<path d="M12 11C10.723 11 9.5057 11.269 8.4062 11.75C5.5206 13.012 3.4281 15.747 3.0625 19C3.0625 20.105 3.8954 21 5 21H19C20.105 21 20.938 20.105 20.938 19C20.572 15.747 18.479 13.012 15.594 11.75C14.494 11.269 13.277 11 12 11V11Z" fill="#252F40"/>
</svg>
